# xmcd
#
# Track frame offsets:
#	150
#	867
#	19048
#	40745
#	60396
#	74815
#	85320
#	102912
#	124823
#	145283
#	158344
#	173140
#	196716
#
# Disc length: 2998 seconds
#
# Revision: 0
# Processed by: cddbd v1.4PL0 Copyright (c) Steve Scherf et al.
# Submitted via: audiograbber 1.81.02
#
DISCID=9c0bb40d
DTITLE=Trevor Findlay Band - Morning Man
DYEAR=1998
DGENRE=Blues
TTITLE0=Wake Up
TTITLE1=Morning Man
TTITLE2=I Remember Sundays
TTITLE3=Instead Of Love
TTITLE4=Out Of My Mind
TTITLE5=Oh No
TTITLE6=Go Man Go
TTITLE7=Why
TTITLE8=Tell Me Everything
TTITLE9=Nicfit
TTITLE10=You're The Only One
TTITLE11=Things Have Got To Get Better
TTITLE12=Last Saturday Night
EXTD=
EXTT0=
EXTT1=
EXTT2=
EXTT3=
EXTT4=
EXTT5=
EXTT6=
EXTT7=
EXTT8=
EXTT9=
EXTT10=
EXTT11=
EXTT12=
PLAYORDER=
